<svg width="12" height="12" viewBox="0 0 12 12" fill="none" xmlns="http://www.w3.org/2000/svg">
<path d="M9 10.5002V5.00019C9 4.86758 8.94732 4.74041 8.85355 4.64664C8.75979 4.55287 8.63261 4.50019 8.5 4.50019H3.5C3.36739 4.50019 3.24022 4.55287 3.14645 4.64664C3.05268 4.74041 3 4.86758 3 5.00019V10.5002M3 6.50019H9M3 8.50019H9M11 9.50019C11 9.76541 10.8946 10.0198 10.7071 10.2073C10.5196 10.3948 10.2652 10.5002 10 10.5002H2C1.73478 10.5002 1.48043 10.3948 1.29289 10.2073C1.10536 10.0198 1 9.76541 1 9.50019V4.00019C0.99989 3.81188 1.05295 3.62736 1.15309 3.46788C1.25322 3.30839 1.39635 3.18042 1.566 3.09869L5.541 1.11169C5.68296 1.0383 5.84044 1 6.00025 1C6.16006 1 6.31754 1.0383 6.4595 1.11169L10.4335 3.09869C10.6032 3.18035 10.7465 3.30829 10.8467 3.46778C10.9469 3.62727 11.0001 3.81183 11 4.00019V9.50019Z" stroke="black" stroke-opacity="0.5" stroke-linecap="round" stroke-linejoin="round"/>
</svg>
