<svg width="32" height="32" viewBox="0 0 32 32" fill="none" xmlns="http://www.w3.org/2000/svg">
<path fill-rule="evenodd" clip-rule="evenodd" d="M4 7.99935C4 7.26297 4.59695 6.66602 5.33333 6.66602H26.6667C27.403 6.66602 28 7.26297 28 7.99935C28 8.73573 27.403 9.33268 26.6667 9.33268H5.33333C4.59695 9.33268 4 8.73573 4 7.99935ZM4 15.9993C4 15.263 4.59695 14.666 5.33333 14.666H26.6667C27.403 14.666 28 15.263 28 15.9993C28 16.7357 27.403 17.3327 26.6667 17.3327H5.33333C4.59695 17.3327 4 16.7357 4 15.9993ZM4 23.9993C4 23.263 4.59695 22.666 5.33333 22.666H26.6667C27.403 22.666 28 23.263 28 23.9993C28 24.7357 27.403 25.3327 26.6667 25.3327H5.33333C4.59695 25.3327 4 24.7357 4 23.9993Z" fill="black"/>
</svg>
